PathFileType	4	(X/Y/Z)	motion_data.trc
DataRate	CameraRate	NumFrames	NumMarkers	Units	OrigDataRate	OrigDataStartFrame	OrigNumFrames
30.0	30.0	63	3	mm	30.0	814	2170
Frame#	Time	r_acromion			r_humerus_epicondyle			r_radius_styloid		
		X1	Y1	Z1	X2	Y2	Z2	X3	Y3	Z3

814	27.1000	512.1955	580.2220	-41.8338	436.2263	538.1893	-74.1495	454.0114	509.6019	-183.4036
815	27.1333	510.8669	578.9488	-20.2468	439.4508	533.5104	-43.1371	449.2942	499.4551	-147.4897
816	27.1667	506.9360	577.1795	-11.5822	438.8275	527.5741	-29.6893	447.8403	495.6314	-124.9159
817	27.2000	500.2109	575.6929	-21.9456	432.5534	521.6483	-36.5044	455.1587	490.9828	-118.2828
818	27.2333	492.7052	575.0718	-38.7862	424.9521	516.2531	-47.3149	473.0539	481.8308	-111.7380
819	27.2667	486.8702	575.3395	-46.6538	421.2260	511.8974	-45.8275	494.4273	472.0254	-94.2884
820	27.3000	483.0873	576.1959	-43.2040	420.5667	509.6680	-31.8703	506.9711	467.7645	-71.8886
821	27.3333	479.2481	577.3219	-40.5523	417.2237	509.9747	-20.7780	503.6368	470.1288	-59.8818
822	27.3667	472.9938	578.4102	-51.2382	408.3244	511.3772	-27.0547	488.4737	474.6584	-67.3653
823	27.4000	464.2184	579.1912	-73.7541	397.7649	511.6988	-48.9628	471.9637	477.1917	-88.4576
824	27.4333	455.2062	579.5913	-94.5445	391.1514	510.1227	-71.5778	462.0495	477.7421	-108.6744
825	27.4667	448.3961	579.7340	-104.2489	389.0698	507.6106	-84.5562	459.8312	478.7673	-120.2748
826	27.5000	444.2780	579.7060	-107.5380	387.4119	505.4630	-92.0631	462.2824	481.7091	-128.7304
827	27.5333	441.5981	579.4385	-115.0896	383.2830	504.0786	-103.9460	467.3841	485.9462	-142.5301
828	27.5667	439.2873	578.8854	-129.9371	378.3166	503.1920	-122.1135	475.6621	489.9887	-160.3149
829	27.6000	437.6078	578.2123	-144.6264	375.9792	502.7754	-138.3498	487.1887	492.6848	-171.2407
830	27.6333	437.2697	577.7053	-149.0629	377.2909	503.2767	-142.3444	498.9500	493.4324	-165.9903
831	27.6667	438.0375	577.5137	-137.9661	380.1217	505.0904	-129.3875	506.5356	492.0463	-144.7826
832	27.7000	438.9348	577.5586	-112.6407	381.9423	508.0810	-103.0535	508.1856	489.0920	-116.5376
833	27.7333	439.7783	577.7163	-80.7681	382.3537	511.6705	-74.8358	506.4829	486.3758	-94.7342
834	27.7667	441.7168	578.0085	-56.0459	383.0555	515.2460	-60.6831	506.0147	486.3892	-93.3478
835	27.8000	445.6638	578.4792	-52.7767	385.9915	518.2963	-71.7327	509.7489	490.3693	-118.5739
836	27.8333	450.5456	578.8673	-73.8403	391.8214	520.1117	-103.4975	517.8193	496.8118	-159.1328
837	27.8667	454.0176	578.5999	-101.7752	400.0022	519.7419	-135.0885	529.1178	502.7270	-189.4410
838	27.9000	455.3139	577.3415	-106.4553	410.0074	516.8940	-143.0474	542.8447	506.8037	-189.0874
839	27.9333	456.7306	575.5675	-70.7056	422.3338	512.9954	-120.1243	558.3650	510.6600	-160.3211
840	27.9667	461.3912	574.4092	-12.5123	438.2083	510.7300	-83.1365	574.9458	516.4806	-125.0678
841	28.0000	469.5730	574.7936	26.2874	457.6417	511.9232	-59.6232	592.2842	524.1568	-104.2958
842	28.0333	478.0923	576.7243	22.9846	477.3685	515.9171	-61.2395	610.0429	531.4653	-100.1464
843	28.0667	483.6813	579.3604	-0.0582	492.1087	520.2694	-72.0502	626.5235	536.5151	-98.3628
844	28.1000	486.3487	581.7029	-5.1696	499.6901	522.9776	-70.4130	639.6101	539.1696	-88.2340
845	28.1333	488.8933	583.1850	9.7027	504.1509	523.8108	-60.3178	649.4977	540.1175	-78.8134
846	28.1667	493.5778	583.7364	8.8404	511.5149	523.6622	-68.7475	658.4710	539.2138	-92.0740
847	28.2000	500.0216	583.5150	-30.5369	522.7806	523.2683	-108.8851	667.3833	535.3559	-136.8605
848	28.2333	506.2509	582.7501	-85.6538	533.3571	522.8251	-158.0308	674.1913	528.1261	-191.4603
849	28.2667	511.0321	581.7536	-116.0284	539.1939	522.0567	-180.0964	676.5808	518.8684	-218.6161
850	28.3000	514.7580	580.8402	-109.9810	540.7586	519.8861	-163.8122	674.5462	509.3066	-201.6656
851	28.3333	518.3709	580.1386	-91.5772	540.5403	514.7021	-131.6214	669.8934	499.4576	-161.9250
852	28.3667	521.9409	579.5158	-88.3691	539.3076	506.1313	-113.4446	664.5504	488.1018	-135.2974
853	28.4000	524.5289	578.6893	-103.5580	536.1855	496.3474	-117.8728	659.8531	475.4469	-135.0333
854	28.4333	525.3188	577.4639	-119.6335	530.5444	488.6240	-129.7989	655.8029	464.1235	-144.2319
855	28.4667	524.5642	576.0165	-120.5962	521.9686	484.6757	-130.4639	649.4239	456.9064	-141.6556
856	28.5000	523.2741	574.9339	-105.5935	509.2993	484.0341	-114.7111	635.0825	454.1245	-124.4601
857	28.5333	522.1881	574.6949	-85.4486	491.8884	485.3943	-91.5869	609.4582	453.7573	-104.8316
858	28.5667	521.3321	575.0026	-73.3283	472.1780	487.5353	-75.2312	576.8808	453.4724	-94.6506
859	28.6000	520.4823	574.8851	-77.7646	455.4474	489.3816	-75.4549	547.2459	452.2617	-97.7331
860	28.6333	519.6792	573.6752	-97.0503	445.8308	490.4080	-90.8947	527.1407	450.7447	-109.9925
861	28.6667	519.0411	571.7541	-119.1503	442.7970	491.1767	-109.6054	514.3644	450.2734	-122.5837
862	28.7000	518.2339	570.1349	-132.9190	441.8764	492.7676	-120.2437	502.1612	451.3618	-128.7308
863	28.7333	516.4836	569.4076	-139.2290	438.5884	495.4118	-122.5290	487.4586	452.8268	-129.6956
864	28.7667	513.2779	569.2885	-144.9821	431.6103	498.0696	-122.9011	473.4027	452.8037	-130.9312
865	28.8000	509.0066	569.1412	-148.5714	422.7838	499.4748	-122.4635	464.4461	450.5924	-132.5674
866	28.8333	504.8162	568.6748	-140.9362	414.8087	499.1619	-116.2976	461.1889	447.0066	-128.7828
867	28.8667	501.6906	568.0585	-121.2828	409.1542	497.3373	-104.1513	461.4602	442.9450	-117.5162
868	28.9000	499.4933	567.5766	-102.4213	406.0987	494.3104	-94.4302	465.5823	438.4857	-105.8842
869	28.9333	496.8878	567.3444	-97.3716	406.4710	490.4177	-95.3497	478.2452	433.8015	-103.4288
870	28.9667	492.3988	567.2742	-106.1658	412.2760	486.1240	-106.3189	503.5901	430.0728	-112.5929
871	29.0000	485.8601	567.1887	-117.9387	424.3385	481.8659	-119.5540	538.6482	428.5678	-127.4527
872	29.0333	478.9018	566.9761	-121.3127	439.5847	477.9901	-126.7607	572.7969	429.2755	-139.0511
873	29.0667	473.6134	566.6112	-110.6863	452.2751	474.8754	-122.9976	594.7263	431.2776	-140.1297
874	29.1000	470.2948	565.9632	-87.9315	458.5072	472.7223	-108.3671	600.6555	434.0474	-128.4712
875	29.1333	466.7300	564.7298	-63.0403	458.4423	471.1622	-89.8463	596.0301	437.4793	-110.2373
876	29.1667	460.2500	562.8040	-49.8502	453.8823	469.5139	-79.2316	589.2952	440.9363	-98.6357
